<mxfile host="app.diagrams.net" agent="Mozilla/5.0 (Windows NT 10.0; Win64; x64; rv:144.0) Gecko/20100101 Firefox/144.0" version="28.2.8">
  <diagram name="Page-1" id="vi68AozSHKKUCN54L4fm">
    <mxGraphModel dx="1572" dy="890" grid="1" gridSize="10" guides="1" tooltips="1" connect="1" arrows="1" fold="1" page="1" pageScale="1" pageWidth="1169" pageHeight="827" math="0" shadow="0">
      <root>
        <mxCell id="0" />
        <mxCell id="1" parent="0" />
        <mxCell id="RomWf89rXEzJghChuS7i-40" style="rounded=0;orthogonalLoop=1;jettySize=auto;html=1;entryX=1;entryY=0.25;entryDx=0;entryDy=0;exitX=0;exitY=0;exitDx=0;exitDy=40;exitPerimeter=0;startArrow=classic;startFill=1;endArrow=none;endFill=0;" edge="1" parent="1" source="RomWf89rXEzJghChuS7i-1" target="RomWf89rXEzJghChuS7i-16">
          <mxGeometry relative="1" as="geometry">
            <Array as="points">
              <mxPoint x="950" y="315" />
            </Array>
          </mxGeometry>
        </mxCell>
        <mxCell id="RomWf89rXEzJghChuS7i-63" style="rounded=0;orthogonalLoop=1;jettySize=auto;html=1;entryX=1;entryY=0.5;entryDx=0;entryDy=0;exitX=0;exitY=0.75;exitDx=0;exitDy=0;" edge="1" parent="1" source="RomWf89rXEzJghChuS7i-16" target="RomWf89rXEzJghChuS7i-6">
          <mxGeometry relative="1" as="geometry">
            <Array as="points">
              <mxPoint x="800" y="436" />
            </Array>
          </mxGeometry>
        </mxCell>
        <mxCell id="RomWf89rXEzJghChuS7i-87" style="edgeStyle=orthogonalEdgeStyle;rounded=0;orthogonalLoop=1;jettySize=auto;html=1;entryX=1;entryY=0.5;entryDx=0;entryDy=0;exitX=0.5;exitY=0;exitDx=0;exitDy=0;exitPerimeter=0;" edge="1" parent="1" source="RomWf89rXEzJghChuS7i-1" target="RomWf89rXEzJghChuS7i-17">
          <mxGeometry relative="1" as="geometry" />
        </mxCell>
        <mxCell id="RomWf89rXEzJghChuS7i-1" value="&lt;div&gt;Event&lt;/div&gt;&lt;div&gt;Store&lt;/div&gt;" style="shape=cylinder3;whiteSpace=wrap;html=1;boundedLbl=1;backgroundOutline=1;size=15;fillColor=#ffe6cc;strokeColor=#d79b00;" vertex="1" parent="1">
          <mxGeometry x="980" y="295" width="120" height="150" as="geometry" />
        </mxCell>
        <mxCell id="RomWf89rXEzJghChuS7i-86" style="rounded=0;orthogonalLoop=1;jettySize=auto;html=1;entryX=0;entryY=0.25;entryDx=0;entryDy=0;" edge="1" parent="1" source="RomWf89rXEzJghChuS7i-2" target="RomWf89rXEzJghChuS7i-16">
          <mxGeometry relative="1" as="geometry">
            <Array as="points">
              <mxPoint x="670" y="286" />
            </Array>
          </mxGeometry>
        </mxCell>
        <mxCell id="RomWf89rXEzJghChuS7i-89" style="edgeStyle=orthogonalEdgeStyle;rounded=0;orthogonalLoop=1;jettySize=auto;html=1;entryX=0.5;entryY=0;entryDx=0;entryDy=0;exitX=0.5;exitY=0;exitDx=0;exitDy=0;" edge="1" parent="1" source="RomWf89rXEzJghChuS7i-2" target="RomWf89rXEzJghChuS7i-17">
          <mxGeometry relative="1" as="geometry" />
        </mxCell>
        <mxCell id="RomWf89rXEzJghChuS7i-2" value="Command Handler" style="rounded=1;whiteSpace=wrap;html=1;fillColor=#dae8fc;strokeColor=#6c8ebf;" vertex="1" parent="1">
          <mxGeometry x="485" y="256.03" width="120" height="60" as="geometry" />
        </mxCell>
        <mxCell id="RomWf89rXEzJghChuS7i-42" style="edgeStyle=orthogonalEdgeStyle;rounded=0;orthogonalLoop=1;jettySize=auto;html=1;entryX=0;entryY=0.5;entryDx=0;entryDy=0;" edge="1" parent="1" source="RomWf89rXEzJghChuS7i-3" target="RomWf89rXEzJghChuS7i-25">
          <mxGeometry relative="1" as="geometry" />
        </mxCell>
        <mxCell id="RomWf89rXEzJghChuS7i-3" value="User" style="shape=umlActor;verticalLabelPosition=bottom;verticalAlign=top;html=1;outlineConnect=0;" vertex="1" parent="1">
          <mxGeometry x="40" y="330" width="30" height="60" as="geometry" />
        </mxCell>
        <mxCell id="RomWf89rXEzJghChuS7i-4" value="Sourced Domain State" style="rounded=1;whiteSpace=wrap;html=1;fillColor=#ffe6cc;strokeColor=#d79b00;direction=south;" vertex="1" parent="1">
          <mxGeometry x="570" y="220" width="50" height="50" as="geometry" />
        </mxCell>
        <mxCell id="RomWf89rXEzJghChuS7i-67" style="edgeStyle=orthogonalEdgeStyle;rounded=0;orthogonalLoop=1;jettySize=auto;html=1;entryX=0;entryY=0.5;entryDx=0;entryDy=0;curved=1;" edge="1" parent="1" source="RomWf89rXEzJghChuS7i-5" target="RomWf89rXEzJghChuS7i-64">
          <mxGeometry relative="1" as="geometry" />
        </mxCell>
        <mxCell id="RomWf89rXEzJghChuS7i-5" value="Query Handler" style="rounded=1;whiteSpace=wrap;html=1;fillColor=#d5e8d4;strokeColor=#82b366;" vertex="1" parent="1">
          <mxGeometry x="485" y="406.03" width="120" height="60" as="geometry" />
        </mxCell>
        <mxCell id="RomWf89rXEzJghChuS7i-65" style="edgeStyle=orthogonalEdgeStyle;rounded=0;orthogonalLoop=1;jettySize=auto;html=1;entryX=1;entryY=0.5;entryDx=0;entryDy=0;curved=1;entryPerimeter=0;" edge="1" parent="1" source="RomWf89rXEzJghChuS7i-6" target="RomWf89rXEzJghChuS7i-64">
          <mxGeometry relative="1" as="geometry" />
        </mxCell>
        <mxCell id="RomWf89rXEzJghChuS7i-6" value="Projector / Event Handler" style="rounded=1;whiteSpace=wrap;html=1;fillColor=#ffe6cc;strokeColor=#d79b00;" vertex="1" parent="1">
          <mxGeometry x="620" y="406.03" width="120" height="60" as="geometry" />
        </mxCell>
        <mxCell id="RomWf89rXEzJghChuS7i-7" value="&lt;div&gt;Projection/&lt;/div&gt;Read Model" style="rounded=1;whiteSpace=wrap;html=1;fillColor=#d5e8d4;strokeColor=#82b366;" vertex="1" parent="1">
          <mxGeometry x="580" y="446.03" width="70" height="60" as="geometry" />
        </mxCell>
        <mxCell id="RomWf89rXEzJghChuS7i-68" style="rounded=0;orthogonalLoop=1;jettySize=auto;html=1;entryX=0;entryY=0.5;entryDx=0;entryDy=0;" edge="1" parent="1" source="RomWf89rXEzJghChuS7i-8" target="RomWf89rXEzJghChuS7i-2">
          <mxGeometry relative="1" as="geometry" />
        </mxCell>
        <mxCell id="RomWf89rXEzJghChuS7i-8" value="Command API" style="rounded=1;whiteSpace=wrap;html=1;fillColor=#dae8fc;strokeColor=#6c8ebf;" vertex="1" parent="1">
          <mxGeometry x="290" y="256.03" width="120" height="60" as="geometry" />
        </mxCell>
        <mxCell id="RomWf89rXEzJghChuS7i-61" style="rounded=0;orthogonalLoop=1;jettySize=auto;html=1;" edge="1" parent="1" source="RomWf89rXEzJghChuS7i-9" target="RomWf89rXEzJghChuS7i-5">
          <mxGeometry relative="1" as="geometry" />
        </mxCell>
        <mxCell id="RomWf89rXEzJghChuS7i-9" value="Query API" style="rounded=1;whiteSpace=wrap;html=1;fillColor=#d5e8d4;strokeColor=#82b366;" vertex="1" parent="1">
          <mxGeometry x="290" y="414.5" width="120" height="51" as="geometry" />
        </mxCell>
        <mxCell id="RomWf89rXEzJghChuS7i-13" value="&lt;div&gt;Query&lt;/div&gt;&lt;div&gt;Database&lt;/div&gt;" style="shape=cylinder3;whiteSpace=wrap;html=1;boundedLbl=1;backgroundOutline=1;size=15;fillColor=#d5e8d4;strokeColor=#82b366;" vertex="1" parent="1">
          <mxGeometry x="640" y="556.03" width="70" height="77.5" as="geometry" />
        </mxCell>
        <mxCell id="RomWf89rXEzJghChuS7i-16" value="&lt;div&gt;Event&lt;/div&gt;&lt;div&gt;Bus&lt;/div&gt;" style="rounded=1;whiteSpace=wrap;html=1;fillColor=#ffe6cc;strokeColor=#d79b00;" vertex="1" parent="1">
          <mxGeometry x="850" y="260" width="50" height="220" as="geometry" />
        </mxCell>
        <mxCell id="RomWf89rXEzJghChuS7i-88" style="rounded=0;orthogonalLoop=1;jettySize=auto;html=1;entryX=0.5;entryY=0;entryDx=0;entryDy=0;" edge="1" parent="1" source="RomWf89rXEzJghChuS7i-17" target="RomWf89rXEzJghChuS7i-4">
          <mxGeometry relative="1" as="geometry" />
        </mxCell>
        <mxCell id="RomWf89rXEzJghChuS7i-17" value="&lt;div&gt;State&lt;/div&gt;&lt;div&gt;Manager&lt;/div&gt;" style="rounded=1;whiteSpace=wrap;html=1;fillColor=#ffe6cc;strokeColor=#d79b00;" vertex="1" parent="1">
          <mxGeometry x="700" y="209.99999999999997" width="90" height="70" as="geometry" />
        </mxCell>
        <mxCell id="RomWf89rXEzJghChuS7i-58" style="rounded=0;orthogonalLoop=1;jettySize=auto;html=1;exitX=1;exitY=0.75;exitDx=0;exitDy=0;" edge="1" parent="1" source="RomWf89rXEzJghChuS7i-25" target="RomWf89rXEzJghChuS7i-9">
          <mxGeometry relative="1" as="geometry">
            <mxPoint x="180" y="436.03" as="sourcePoint" />
            <Array as="points">
              <mxPoint x="230" y="440" />
            </Array>
          </mxGeometry>
        </mxCell>
        <mxCell id="RomWf89rXEzJghChuS7i-59" style="rounded=0;orthogonalLoop=1;jettySize=auto;html=1;entryX=0;entryY=0.5;entryDx=0;entryDy=0;exitX=1;exitY=0.25;exitDx=0;exitDy=0;" edge="1" parent="1" source="RomWf89rXEzJghChuS7i-25" target="RomWf89rXEzJghChuS7i-8">
          <mxGeometry relative="1" as="geometry">
            <Array as="points">
              <mxPoint x="230" y="286" />
            </Array>
          </mxGeometry>
        </mxCell>
        <mxCell id="RomWf89rXEzJghChuS7i-25" value="UI" style="rounded=1;whiteSpace=wrap;html=1;fillColor=#e1d5e7;strokeColor=#9673a6;" vertex="1" parent="1">
          <mxGeometry x="140" y="240" width="40" height="240" as="geometry" />
        </mxCell>
        <mxCell id="RomWf89rXEzJghChuS7i-41" style="rounded=0;orthogonalLoop=1;jettySize=auto;html=1;exitX=1;exitY=0.75;exitDx=0;exitDy=0;entryX=0;entryY=0;entryDx=0;entryDy=105;entryPerimeter=0;startArrow=classic;startFill=1;endArrow=none;endFill=0;" edge="1" parent="1" source="RomWf89rXEzJghChuS7i-16" target="RomWf89rXEzJghChuS7i-1">
          <mxGeometry relative="1" as="geometry">
            <Array as="points">
              <mxPoint x="940" y="425" />
            </Array>
          </mxGeometry>
        </mxCell>
        <mxCell id="RomWf89rXEzJghChuS7i-64" value="Query Repo" style="rounded=1;whiteSpace=wrap;html=1;fillColor=#d5e8d4;strokeColor=#82b366;" vertex="1" parent="1">
          <mxGeometry x="580" y="516.03" width="70" height="60" as="geometry" />
        </mxCell>
        <mxCell id="RomWf89rXEzJghChuS7i-70" value="Command" style="ellipse;whiteSpace=wrap;html=1;fillColor=#dae8fc;strokeColor=#6c8ebf;" vertex="1" parent="1">
          <mxGeometry x="400" y="236.03" width="60" height="50" as="geometry" />
        </mxCell>
        <mxCell id="RomWf89rXEzJghChuS7i-71" value="Query" style="ellipse;whiteSpace=wrap;html=1;fillColor=#d5e8d4;strokeColor=#82b366;" vertex="1" parent="1">
          <mxGeometry x="400" y="380" width="60" height="50" as="geometry" />
        </mxCell>
        <mxCell id="RomWf89rXEzJghChuS7i-90" value="&lt;font style=&quot;font-size: 14px;&quot;&gt;State Change for Command/Information entering&lt;/font&gt;" style="text;html=1;whiteSpace=wrap;strokeColor=none;fillColor=none;align=center;verticalAlign=middle;rounded=0;fontStyle=1" vertex="1" parent="1">
          <mxGeometry x="290" y="150" width="345" height="30" as="geometry" />
        </mxCell>
        <mxCell id="RomWf89rXEzJghChuS7i-92" value="&lt;font style=&quot;font-size: 14px;&quot;&gt;State View&amp;nbsp; for Query/Domain data leaving&lt;/font&gt;" style="text;html=1;whiteSpace=wrap;strokeColor=none;fillColor=none;align=center;verticalAlign=middle;rounded=0;fontStyle=1" vertex="1" parent="1">
          <mxGeometry x="210" y="496.03" width="310" height="30" as="geometry" />
        </mxCell>
      </root>
    </mxGraphModel>
  </diagram>
</mxfile>
